<?xml version="1.0"?>
<svg xmlns="http://www.w3.org/2000/svg" xmlns:xlink="http://www.w3.org/1999/xlink" version="1.1" id="Layer_1" x="0px" y="0px" viewBox="0 0 512 512" style="enable-background:new 0 0 512 512;" xml:space="preserve" width="512px" height="512px"><g><g>
	<g>
		<path d="M500.364,334.466h-4.986V107.375c0-6.427-5.211-11.636-11.636-11.636h-69.709C385.427,63.462,326.975,32.262,256,32.262    c-70.975,0-129.427,31.201-158.032,63.476H28.259c-6.426,0-11.636,5.21-11.636,11.636v227.092h-4.986    C5.211,334.466,0,339.676,0,346.103v65.368c0,6.427,5.211,11.636,11.636,11.636h27.328v44.994c0,6.427,5.211,11.636,11.636,11.636    h47.55c6.426,0,11.636-5.21,11.636-11.636v-44.994h292.425v44.994c0,6.427,5.211,11.636,11.636,11.636h47.55    c6.426,0,11.636-5.21,11.636-11.636v-44.994h27.329c6.426,0,11.636-5.21,11.636-11.636v-65.368    C512,339.676,506.789,334.466,500.364,334.466z M39.895,119.011h63.476c3.532,0,6.874-1.605,9.082-4.361    C135.261,86.178,189.909,55.535,256,55.535s120.74,30.643,143.546,59.115c2.207,2.757,5.551,4.361,9.082,4.361h63.476v215.455    H456.34v-63.038c0-21.809-17.645-39.568-39.409-39.767c0.497-2.161,0.768-4.407,0.768-6.716v-43.258    c0-16.531-13.448-29.979-29.979-29.979H274.342c-6.906,0-13.269,2.353-18.344,6.292c-5.075-3.939-11.437-6.292-18.344-6.292    H124.277c-16.531,0-29.979,13.448-29.979,29.979v43.258c0,2.31,0.271,4.556,0.768,6.716    c-21.763,0.199-39.409,17.957-39.409,39.767v63.038H39.895V119.011z M333.795,290.065H78.933v-18.637    c0-9.1,7.403-16.504,16.504-16.504h28.843h113.378h36.686h113.378h28.843c9.1,0,16.504,7.403,16.504,16.504v63.038H78.933v-21.128    h254.862c6.426,0,11.636-5.21,11.636-11.636C345.431,295.275,340.221,290.065,333.795,290.065z M117.574,224.946v-43.258    c0-3.698,3.008-6.706,6.706-6.706h113.378c3.698,0,6.707,3.008,6.707,6.706v43.258c0,3.698-3.009,6.707-6.707,6.707H124.28    C120.582,231.653,117.574,228.644,117.574,224.946z M267.635,224.946v-43.258c0-3.698,3.009-6.706,6.707-6.706H387.72    c3.698,0,6.706,3.008,6.706,6.706v43.258c0,3.698-3.008,6.707-6.706,6.707H274.342    C270.644,231.653,267.635,228.645,267.635,224.946z M62.237,456.465v-33.358h24.277v33.358H62.237z M449.763,456.465h-24.277    v-33.358h24.277V456.465z M488.727,399.835h-27.328h-47.55H98.152H50.601H23.273v-42.096h4.986h39.038h377.407h39.038h4.986    V399.835z" data-original="#000000" class="active-path" data-old_color="#000000" fill="#FFFFFF"/>
	</g>
</g><g>
	<g>
		<path d="M385.152,299.427c-0.152-0.745-0.372-1.478-0.663-2.176c-0.291-0.698-0.653-1.373-1.071-2.013    c-0.419-0.628-0.908-1.222-1.443-1.757c-0.535-0.547-1.129-1.024-1.769-1.455c-0.628-0.419-1.303-0.78-2.013-1.071    c-0.698-0.291-1.43-0.512-2.176-0.663c-1.501-0.303-3.049-0.303-4.55,0c-0.733,0.151-1.466,0.372-2.176,0.663    c-0.698,0.291-1.373,0.652-2.001,1.071c-0.64,0.431-1.233,0.908-1.769,1.455c-0.535,0.535-1.024,1.129-1.455,1.757    c-0.419,0.64-0.78,1.315-1.071,2.013c-0.291,0.698-0.512,1.431-0.663,2.176c-0.151,0.756-0.221,1.513-0.221,2.281    c0,0.756,0.071,1.513,0.221,2.269c0.151,0.745,0.372,1.478,0.663,2.176c0.291,0.698,0.652,1.373,1.071,2.013    c0.431,0.628,0.919,1.222,1.455,1.769c0.535,0.535,1.129,1.012,1.769,1.443c0.628,0.419,1.303,0.78,2.001,1.071    c0.71,0.291,1.443,0.512,2.176,0.663c0.756,0.151,1.526,0.221,2.281,0.221c0.756,0,1.526-0.07,2.269-0.221    c0.746-0.151,1.479-0.372,2.176-0.663c0.71-0.291,1.385-0.652,2.013-1.071c0.64-0.431,1.233-0.908,1.769-1.443    c0.535-0.547,1.024-1.14,1.443-1.769c0.418-0.64,0.78-1.315,1.071-2.013c0.291-0.698,0.511-1.431,0.663-2.176    c0.151-0.756,0.232-1.513,0.232-2.269C385.384,300.94,385.303,300.183,385.152,299.427z" data-original="#000000" class="active-path" data-old_color="#000000" fill="#FFFFFF"/>
	</g>
</g></g> </svg>
