<?xml version="1.0" encoding="iso-8859-1"?>
<!-- Generator: Adobe Illustrator 19.0.0, SVG Export Plug-In . SVG Version: 6.00 Build 0)  -->
<svg version="1.1" id="Layer_1" xmlns="http://www.w3.org/2000/svg" xmlns:xlink="http://www.w3.org/1999/xlink" x="0px" y="0px"
	 viewBox="0 0 511.999 511.999" style="enable-background:new 0 0 511.999 511.999;" xml:space="preserve">
<g>
	<g>
		<path d="M480.934,298.507c-9.363-33.689-29.319-64.071-56.741-86.16c-29.681-23.91-67.031-37.11-105.212-37.197V123.69
			c0-6.291-5.101-11.392-11.392-11.392H171.642V65.906l38.813-17.298c5.747-2.561,8.33-9.295,5.768-15.042
			c-2.56-5.746-9.295-8.332-15.042-5.768l-45.569,20.307c-4.108,1.83-6.756,5.908-6.756,10.406v53.787H11.392
			C5.101,112.297,0,117.399,0,123.69v55.578c0,6.291,5.101,11.392,11.392,11.392h7.502l44.041,284.47
			c0.858,5.543,5.625,9.638,11.235,9.649l168.243,0.321c1.241,0.048,2.482,0.091,3.734,0.091h144.909
			c52.934,0,95.998-43.065,95.998-95.998v-8.784c14.749-7.152,24.944-22.277,24.944-39.74
			C512,320.879,498.909,304.091,480.934,298.507z M318.602,197.93c63.277,0,118.059,39.867,137.915,98.6H283.812l14.961-97.247
			C305.35,198.383,311.991,197.93,318.602,197.93z M22.784,167.875v-32.793h273.412v32.793h-5.87H28.657H22.784z M247.284,384.11
			l-12.03,78.192l-151.295-0.288L49.46,239.175h150.092c6.291,0,11.392-5.101,11.392-11.392c0-6.291-5.101-11.392-11.392-11.392
			H45.932l-3.984-25.731h235.098l-17.774,115.53l-7.894,51.308L247.284,384.11z M270.23,384.805h21.857l1.752,1.312l6.898,5.167
			l-31.769,23.796l-3.043-2.309L270.23,384.805z M464.271,389.193h-0.001c0,40.37-32.844,73.214-73.214,73.214H258.291l3.286-21.358
			l0.41-2.665l0.052,0.04c2.035,1.544,4.46,2.317,6.887,2.317c2.401,0,4.805-0.758,6.83-2.274l43.987-32.947l43.986,32.947
			c2.024,1.516,4.427,2.274,6.83,2.274c2.403,0,4.806-0.758,6.83-2.274l71.641-53.662h15.243V389.193z M330.092,384.805h80.93
			l-40.465,30.309L330.092,384.805z M472.442,361.513c-0.163,0.035-0.327,0.073-0.491,0.105c-0.573,0.112-1.154,0.202-1.743,0.267
			c-0.14,0.016-0.28,0.025-0.422,0.039c-0.635,0.057-1.275,0.097-1.924,0.097h-22.628H295.882h-22.145l1.532-9.96h131.017
			c6.291,0,11.392-5.101,11.392-11.392c0-6.291-5.101-11.392-11.392-11.392H278.773l1.532-9.961h187.557
			c0.621,0,1.233,0.041,1.84,0.093c0.179,0.016,0.354,0.027,0.538,0.048c10.657,1.188,18.974,10.243,18.974,21.213
			C489.216,350.869,482.02,359.41,472.442,361.513z"/>
	</g>
</g>
<g>
	<g>
		<path d="M455.886,338.434c-0.136-0.718-0.365-1.435-0.649-2.129c-0.273-0.685-0.627-1.345-1.037-1.961
			c-0.421-0.627-0.9-1.208-1.424-1.732c-0.524-0.524-1.105-1.003-1.732-1.413c-0.615-0.41-1.276-0.763-1.959-1.048
			c-0.695-0.285-1.413-0.513-2.13-0.649c-1.482-0.308-2.985-0.296-4.454,0c-0.73,0.137-1.448,0.365-2.13,0.649
			c-0.695,0.285-1.356,0.638-1.971,1.048c-0.627,0.41-1.208,0.889-1.732,1.413s-1.003,1.105-1.413,1.732
			c-0.409,0.615-0.763,1.276-1.048,1.961c-0.285,0.694-0.513,1.411-0.649,2.129c-0.148,0.741-0.227,1.494-0.227,2.233
			c0,0.74,0.079,1.493,0.227,2.221c0.149,0.73,0.365,1.448,0.649,2.13c0.285,0.695,0.639,1.356,1.048,1.971
			c0.41,0.627,0.889,1.208,1.413,1.732c0.524,0.524,1.105,1.003,1.732,1.424c0.615,0.41,1.276,0.763,1.971,1.048
			c0.684,0.285,1.4,0.501,2.13,0.649c0.729,0.148,1.481,0.215,2.221,0.215c0.739,0,1.492-0.068,2.233-0.215
			c0.718-0.148,1.435-0.365,2.13-0.649c0.684-0.285,1.344-0.638,1.959-1.048c0.627-0.422,1.208-0.9,1.732-1.424
			c0.524-0.524,1.003-1.105,1.413-1.732c0.41-0.615,0.763-1.276,1.048-1.971c0.285-0.684,0.513-1.4,0.649-2.13
			c0.148-0.729,0.228-1.481,0.228-2.221C456.114,339.928,456.034,339.175,455.886,338.434z"/>
	</g>
</g>
<g>
	<g>
		<path d="M159.49,259.034c-43.989,0-79.776,35.787-79.776,79.776s35.787,79.776,79.776,79.776
			c43.989,0,79.776-35.787,79.776-79.776S203.479,259.034,159.49,259.034z M159.49,395.801c-31.425,0-56.992-25.566-56.992-56.992
			s25.566-56.992,56.992-56.992c31.425,0,56.992,25.566,56.992,56.992S190.915,395.801,159.49,395.801z"/>
	</g>
</g>
<g>
	<g>
		<path d="M249.835,225.561c-0.146-0.729-0.363-1.447-0.648-2.129c-0.285-0.695-0.638-1.356-1.048-1.971
			c-0.421-0.627-0.9-1.208-1.424-1.732c-2.642-2.643-6.573-3.863-10.276-3.11c-0.73,0.148-1.448,0.365-2.13,0.649
			c-0.695,0.285-1.356,0.638-1.971,1.048c-0.627,0.41-1.208,0.889-1.732,1.413c-0.524,0.524-1.003,1.105-1.413,1.732
			c-0.41,0.615-0.763,1.276-1.048,1.971c-0.285,0.684-0.501,1.4-0.649,2.13c-0.148,0.729-0.227,1.481-0.227,2.22
			c0,0.74,0.079,1.494,0.227,2.221c0.148,0.728,0.365,1.448,0.649,2.13c0.285,0.695,0.638,1.356,1.048,1.971
			c0.41,0.627,0.889,1.208,1.413,1.732c0.524,0.524,1.105,1.003,1.732,1.413c0.615,0.409,1.276,0.763,1.971,1.048
			c0.684,0.285,1.4,0.5,2.13,0.649c0.729,0.148,1.481,0.227,2.221,0.227c3.008,0,5.935-1.218,8.053-3.338
			c0.524-0.524,1.003-1.105,1.424-1.732c0.41-0.615,0.763-1.276,1.048-1.971c0.285-0.684,0.501-1.401,0.649-2.13
			c0.148-0.729,0.216-1.481,0.216-2.221C250.051,227.042,249.982,226.289,249.835,225.561z"/>
	</g>
</g>
<g>
</g>
<g>
</g>
<g>
</g>
<g>
</g>
<g>
</g>
<g>
</g>
<g>
</g>
<g>
</g>
<g>
</g>
<g>
</g>
<g>
</g>
<g>
</g>
<g>
</g>
<g>
</g>
<g>
</g>
</svg>
