<svg height="512pt" viewBox="0 0 512.00001 512" width="512pt" xmlns="http://www.w3.org/2000/svg"><path d="m330.992188 270.964844c-33.082032 0-59.992188 26.914062-59.992188 59.992187s26.910156 59.992188 59.992188 59.992188c33.078124 0 59.992187-26.914063 59.992187-59.992188s-26.914063-59.992187-59.992187-59.992187zm0 89.988281c-16.542969 0-29.996094-13.457031-29.996094-29.996094 0-16.539062 13.453125-29.996093 29.996094-29.996093 16.539062 0 29.996093 13.457031 29.996093 29.996093 0 16.539063-13.457031 29.996094-29.996093 29.996094zm0 0"/><path d="m241 59.992188c0-33.078126-26.910156-59.992188-59.992188-59.992188-33.078124 0-59.992187 26.914062-59.992187 59.992188 0 33.078124 26.914063 59.992187 59.992187 59.992187 33.082032 0 59.992188-26.914063 59.992188-59.992187zm-59.992188 29.996093c-16.539062 0-29.996093-13.457031-29.996093-29.996093 0-16.539063 13.457031-29.996094 29.996093-29.996094 16.542969 0 29.996094 13.457031 29.996094 29.996094 0 16.539062-13.453125 29.996093-29.996094 29.996093zm0 0"/><path d="m390.984375 59.992188c0-33.078126-26.914063-59.992188-59.992187-59.992188-33.082032 0-59.992188 26.914062-59.992188 59.992188 0 33.078124 26.910156 59.992187 59.992188 59.992187 33.078124 0 59.992187-26.914063 59.992187-59.992187zm-59.992187 29.996093c-16.542969 0-29.996094-13.457031-29.996094-29.996093 0-16.539063 13.453125-29.996094 29.996094-29.996094 16.539062 0 29.996093 13.457031 29.996093 29.996094 0 16.539062-13.457031 29.996093-29.996093 29.996093zm0 0"/><path d="m420.980469 209.972656c0-49.621094-40.371094-89.988281-89.988281-89.988281-31.269532 0-58.855469 16.03125-74.992188 40.304687-16.136719-24.273437-43.722656-40.304687-74.992188-40.304687-49.617187 0-89.988281 40.367187-89.988281 89.988281h-11.226562l-79.792969 271.964844h91.019531v29.996094h329.960938v-29.996094h91.019531l-79.792969-271.964844zm-89.988281-59.992187c33.078124 0 59.992187 26.914062 59.992187 59.992187h-119.984375c0-33.078125 26.910156-59.992187 59.992188-59.992187zm-149.984376 0c33.082032 0 59.992188 26.914062 59.992188 59.992187h-119.984375c0-33.078125 26.914063-59.992187 59.992187-59.992187zm-59.992187 331.957031c0-33.078125 26.914063-59.992188 59.992187-59.992188 33.082032 0 59.992188 26.914063 59.992188 59.992188zm149.984375 0c0-33.078125 26.910156-59.992188 59.992188-59.992188 33.078124 0 59.992187 26.914063 59.992187 59.992188zm144.832031-29.996094c-12.382812-34.914062-45.734375-59.992187-84.839843-59.992187-31.269532 0-58.855469 16.03125-74.992188 40.304687-16.136719-24.273437-43.722656-40.304687-74.992188-40.304687-39.105468 0-72.457031 25.078125-84.839843 59.992187h-56.105469l62.1875-211.972656h307.5l62.1875 211.972656zm0 0"/><path d="m181.007812 270.964844c-33.078124 0-59.992187 26.914062-59.992187 59.992187s26.914063 59.992188 59.992187 59.992188c33.082032 0 59.992188-26.914063 59.992188-59.992188s-26.910156-59.992187-59.992188-59.992187zm0 89.988281c-16.539062 0-29.996093-13.457031-29.996093-29.996094 0-16.539062 13.457031-29.996093 29.996093-29.996093 16.542969 0 29.996094 13.457031 29.996094 29.996093 0 16.539063-13.453125 29.996094-29.996094 29.996094zm0 0"/></svg>