<?xml version="1.0"?>
<svg xmlns="http://www.w3.org/2000/svg" xmlns:xlink="http://www.w3.org/1999/xlink" version="1.1" id="Layer_1" x="0px" y="0px" viewBox="0 0 512 512" style="enable-background:new 0 0 512 512;" xml:space="preserve" width="512px" height="512px"><g><g>
	<g>
		<path d="M417.534,467.805c-0.558-0.549-1.167-1.05-1.812-1.492c-0.656-0.43-1.349-0.8-2.065-1.098    c-0.716-0.286-1.467-0.525-2.232-0.668c-1.54-0.31-3.127-0.31-4.667,0c-0.764,0.143-1.516,0.382-2.231,0.668    c-0.717,0.298-1.42,0.668-2.065,1.098c-0.656,0.442-1.265,0.943-1.814,1.492c-2.22,2.22-3.498,5.299-3.498,8.438    c0,0.776,0.083,1.563,0.239,2.327c0.155,0.764,0.382,1.516,0.68,2.232c0.298,0.728,0.668,1.42,1.098,2.065    c0.428,0.656,0.931,1.265,1.48,1.814c0.549,0.549,1.158,1.05,1.814,1.48c0.645,0.43,1.349,0.8,2.065,1.098    c0.716,0.298,1.467,0.525,2.231,0.68c0.765,0.155,1.553,0.239,2.327,0.239c0.788,0,1.565-0.084,2.339-0.239    c0.765-0.155,1.517-0.382,2.232-0.68c0.717-0.298,1.409-0.668,2.065-1.098c0.644-0.43,1.253-0.931,1.814-1.48    c0.549-0.549,1.038-1.158,1.48-1.814c0.43-0.644,0.8-1.337,1.098-2.065c0.298-0.716,0.525-1.468,0.68-2.232    c0.155-0.764,0.226-1.552,0.226-2.327C421.019,473.104,419.754,470.024,417.534,467.805z" data-original="#000000" class="active-path" data-old_color="#000000" fill="#FFFFFF"/>
	</g>
</g><g>
	<g>
		<path d="M470.147,23.823H41.853C18.775,23.823,0,42.599,0,65.677v249.006v42.13c0,23.077,18.775,41.853,41.853,41.853H185.58    c0.127,2.71,0.204,5.432,0.204,8.155c0,27.068-6.154,42.368-16.938,57.486h-65.939c-6.592,0-11.935,5.343-11.935,11.935    c0,6.592,5.343,11.935,11.935,11.935h71.937h162.312h30.96c6.59,0,11.935-5.343,11.935-11.935c0-6.592-5.344-11.935-11.935-11.935    h-24.963c-10.784-15.117-16.938-30.417-16.938-57.486c0-2.725,0.076-5.446,0.204-8.155h143.728    c23.078,0,41.853-18.774,41.853-41.853v-42.13V65.677C512,42.599,493.226,23.823,470.147,23.823z M23.869,65.677    c0-9.917,8.068-17.983,17.983-17.983h428.293c9.917,0,17.983,8.068,17.983,17.983v237.072H23.869V65.677z M196.923,464.305    c7.939-14.943,12.731-32.492,12.731-57.486c0-2.721-0.056-5.443-0.168-8.155h93.028c-0.112,2.712-0.168,5.434-0.168,8.155    c0.001,24.996,4.792,42.544,12.731,57.486H196.923z M488.131,356.811c0,9.917-8.068,17.983-17.983,17.983H315.375H196.625H41.853    c-9.917,0-17.983-8.067-17.983-17.983v-30.195h464.261V356.811z" data-original="#000000" class="active-path" data-old_color="#000000" fill="#FFFFFF"/>
	</g>
</g><g>
	<g>
		<path d="M265.946,338.771h-19.892c-6.592,0-11.935,5.343-11.935,11.935s5.343,11.935,11.935,11.935h19.892    c6.59,0,11.935-5.343,11.935-11.935S272.537,338.771,265.946,338.771z" data-original="#000000" class="active-path" data-old_color="#000000" fill="#FFFFFF"/>
	</g>
</g><g>
	<g>
		<path d="M382.604,127.123C348.757,93.197,303.796,74.513,256,74.513c-47.795,0-92.757,18.684-126.601,52.611    c-4.655,4.667-4.646,12.224,0.02,16.878c2.33,2.324,5.379,3.485,8.43,3.485c3.059,0,6.118-1.168,8.45-3.506    c29.334-29.405,68.294-45.599,109.703-45.599s80.368,16.194,109.702,45.599c4.656,4.668,12.213,4.675,16.879,0.02    C387.249,139.346,387.258,131.789,382.604,127.123z" data-original="#000000" class="active-path" data-old_color="#000000" fill="#FFFFFF"/>
	</g>
</g><g>
	<g>
		<path d="M346.292,155.088c-24.131-24.218-56.198-37.554-90.292-37.554c-34.095,0-66.161,13.336-90.293,37.553    c-4.652,4.669-4.639,12.226,0.03,16.878c2.33,2.321,5.377,3.481,8.425,3.481c3.061,0,6.123-1.171,8.453-3.51    c19.62-19.689,45.681-30.531,73.385-30.531c27.703,0,53.765,10.843,73.385,30.531c4.651,4.67,12.209,4.681,16.878,0.03    C350.932,167.314,350.946,159.757,346.292,155.088z" data-original="#000000" class="active-path" data-old_color="#000000" fill="#FFFFFF"/>
	</g>
</g><g>
	<g>
		<path d="M310.014,183.033c-14.404-14.495-33.586-22.478-54.014-22.478s-39.611,7.982-54.015,22.478    c-4.646,4.675-4.622,12.232,0.052,16.878c2.328,2.313,5.371,3.469,8.413,3.469c3.066,0,6.133-1.174,8.465-3.522    c9.89-9.952,23.06-15.434,37.084-15.434c14.024,0,27.193,5.48,37.082,15.434c4.647,4.675,12.204,4.7,16.879,0.053    C314.635,195.265,314.66,187.709,310.014,183.033z" data-original="#000000" class="active-path" data-old_color="#000000" fill="#FFFFFF"/>
	</g>
</g><g>
	<g>
		<path d="M256,202.743c-20.114,0-36.476,16.362-36.476,36.476c0,20.114,16.363,36.476,36.476,36.476s36.476-16.364,36.476-36.476    C292.476,219.106,276.114,202.743,256,202.743z M256,251.825c-6.951,0-12.607-5.656-12.607-12.607s5.656-12.607,12.607-12.607    c6.952,0,12.607,5.656,12.607,12.607S262.952,251.825,256,251.825z" data-original="#000000" class="active-path" data-old_color="#000000" fill="#FFFFFF"/>
	</g>
</g></g> </svg>
