<?xml version="1.0" encoding="iso-8859-1"?>
<!-- Generator: Adobe Illustrator 19.0.0, SVG Export Plug-In . SVG Version: 6.00 Build 0)  -->
<svg version="1.1" id="Layer_1" xmlns="http://www.w3.org/2000/svg" xmlns:xlink="http://www.w3.org/1999/xlink" x="0px" y="0px"
	 viewBox="0 0 512 512" style="enable-background:new 0 0 512 512;" xml:space="preserve">
<g>
	<g>
		<path d="M100.279,193.828c-0.158-0.778-0.4-1.543-0.704-2.272c-0.304-0.729-0.682-1.434-1.119-2.102
			c-0.436-0.656-0.947-1.276-1.506-1.847c-0.559-0.559-1.18-1.057-1.848-1.507c-0.656-0.438-1.361-0.814-2.101-1.118
			c-0.73-0.304-1.495-0.535-2.273-0.693c-1.568-0.316-3.184-0.316-4.739,0c-0.778,0.158-1.543,0.389-2.272,0.693
			c-0.74,0.304-1.445,0.681-2.101,1.118c-0.668,0.45-1.289,0.948-1.848,1.507c-0.559,0.571-1.069,1.191-1.506,1.847
			c-0.437,0.668-0.815,1.373-1.119,2.102c-0.304,0.729-0.546,1.495-0.691,2.272c-0.158,0.79-0.243,1.58-0.243,2.382
			c0,0.79,0.085,1.58,0.243,2.37c0.143,0.778,0.386,1.543,0.69,2.273s0.682,1.434,1.119,2.102c0.436,0.656,0.947,1.288,1.506,1.847
			s1.18,1.069,1.848,1.507c0.656,0.438,1.361,0.814,2.101,1.118c0.73,0.304,1.495,0.535,2.273,0.693
			c0.779,0.158,1.58,0.243,2.37,0.243c3.196,0,6.331-1.3,8.592-3.561c2.259-2.26,3.561-5.396,3.561-8.592
			C100.51,195.408,100.425,194.618,100.279,193.828z"/>
	</g>
</g>
<g>
	<g>
		<path d="M466.122,197.767l-197.788-71.748V94.841c0-6.712-5.442-12.152-12.152-12.152c-16.097,0-29.193-13.095-29.193-29.192
			c0-16.097,13.097-29.191,29.194-29.191c16.096,0,29.191,13.095,29.191,29.191c0,6.712,5.442,12.152,12.152,12.152
			c6.711,0,12.152-5.441,12.152-12.152C309.68,23.999,285.681,0,256.184,0c-29.499,0-53.497,23.999-53.497,53.496
			c0,25.318,17.684,46.569,41.345,52.089v20.335l-123.41,43.247c-6.334,2.22-9.668,9.154-7.449,15.488
			c2.22,6.334,9.148,9.67,15.488,7.449l127.453-44.664l193.713,70.27v15.6H62.174v-22.003c0-6.712-5.442-12.152-12.152-12.152
			c-6.711,0-12.152,5.441-12.152,12.152v34.156v61.202c0,3.224,1.281,6.316,3.561,8.594s5.37,3.558,8.592,3.558
			c0.001,0,0.002,0,0.004,0l36.75-0.01v61.947v80.682v38.411c0,6.712,5.442,12.152,12.152,12.152
			c6.711,0,12.152-5.441,12.152-12.152v-26.259h28.053v26.259c0,6.712,5.442,12.152,12.152,12.152s12.152-5.441,12.152-12.152
			v-26.259h28.053v26.259c0,6.712,5.442,12.152,12.152,12.152s12.152-5.441,12.152-12.152v-26.259h28.053v26.259
			c0,6.712,5.442,12.152,12.152,12.152c6.711,0,12.152-5.441,12.152-12.152v-26.259h28.053v26.259
			c0,6.712,5.442,12.152,12.152,12.152c6.711,0,12.152-5.441,12.152-12.152v-26.259h28.053v26.259
			c0,6.712,5.442,12.152,12.152,12.152s12.152-5.441,12.152-12.152v-26.259h28.053v26.259c0,6.712,5.442,12.152,12.152,12.152
			s12.152-5.441,12.152-12.152v-38.411v-80.682v-62.038l36.757-0.01c6.709-0.001,12.149-5.442,12.149-12.152v-61.091v-0.111v-36.161
			C474.131,204.078,470.931,199.511,466.122,197.767z M86.775,282.431v12.072l-24.601,0.006v-36.893h31.41
			C89.265,264.892,86.775,273.374,86.775,282.431z M400.92,449.284H111.08v-56.377h289.84V449.284z M400.92,368.602H111.08V282.43
			c0-13.49,10.975-24.465,24.465-24.465h240.909c13.49,0,24.465,10.975,24.465,24.465V368.602z M449.826,294.404l-24.601,0.007
			V282.43c0-9.057-2.49-17.54-6.809-24.815h31.41V294.404z"/>
	</g>
</g>
<g>
</g>
<g>
</g>
<g>
</g>
<g>
</g>
<g>
</g>
<g>
</g>
<g>
</g>
<g>
</g>
<g>
</g>
<g>
</g>
<g>
</g>
<g>
</g>
<g>
</g>
<g>
</g>
<g>
</g>
</svg>
