<?xml version="1.0" encoding="iso-8859-1"?>
<!-- Generator: Adobe Illustrator 19.0.0, SVG Export Plug-In . SVG Version: 6.00 Build 0)  -->
<svg version="1.1" id="Layer_1" xmlns="http://www.w3.org/2000/svg" xmlns:xlink="http://www.w3.org/1999/xlink" x="0px" y="0px"
	 viewBox="0 0 512 512" style="enable-background:new 0 0 512 512;" xml:space="preserve">
<g>
	<g>
		<path d="M500.622,82.719h-30.229c-2.547-21.408-20.107-38.08-42.142-39.082c-0.064-0.005-0.129-0.008-0.192-0.011
			c-0.081-0.003-0.16-0.011-0.241-0.014c-0.001,0-0.003,0-0.005,0l-0.134-0.006c-0.493-0.018-0.984-0.033-1.481-0.033H85.802
			c-22.731,0-41.524,17.124-44.19,39.146H11.378C5.094,82.72,0,87.815,0,94.098v68.267c0,6.283,5.094,11.378,11.378,11.378h29.897
			v215.04c0,6.283,5.094,11.378,11.378,11.378h11.378v56.889c0,6.283,5.094,11.378,11.378,11.378h383.939
			c6.284,0,11.378-5.095,11.378-11.378V173.742h29.897c6.284,0,11.378-5.095,11.378-11.378V94.098
			C512,87.814,506.906,82.719,500.622,82.719z M41.275,150.985h-18.52v-45.511h18.52V150.985z M407.534,82.686
			c1.89-7.333,7.522-13.282,14.925-15.454c0.196-0.057,0.39-0.117,0.588-0.168c0.34-0.09,0.686-0.167,1.033-0.24
			c0.461-0.096,0.922-0.19,1.393-0.257c0.117-0.017,0.231-0.031,0.346-0.046c0.549-0.069,1.108-0.114,1.671-0.142
			c9.676,0.56,17.518,7.318,19.792,16.341h-39.756C407.528,82.707,407.532,82.697,407.534,82.686z M64.031,377.403v-39.822h234.884
			c6.284,0,11.378-5.095,11.378-11.378c0-6.283-5.094-11.378-11.378-11.378H64.031V162.363V94.097v-5.997
			c0-12.005,9.767-21.771,21.771-21.771h303.904c-2.363,4.236-4.036,8.91-4.913,13.863c-0.042,0.236-0.076,0.472-0.115,0.709
			c-0.112,0.696-0.213,1.395-0.292,2.103c-0.065,0.564-0.121,1.132-0.165,1.702c-0.02,0.28-0.04,0.56-0.056,0.842
			c-0.049,0.846-0.082,1.696-0.082,2.553v5.997v68.267v215.04H75.409H64.031z M447.969,445.67H86.786v-45.511H395.46
			c6.284,0,11.378-5.095,11.378-11.378v-215.04h41.132V445.67z M489.244,150.985h-82.407v-45.511h82.407V150.985z"/>
	</g>
</g>
<g>
	<g>
		<path d="M344.201,323.981c-0.148-0.729-0.364-1.446-0.648-2.128c-0.284-0.694-0.637-1.354-1.047-1.968
			c-0.41-0.626-0.887-1.206-1.411-1.729c-0.523-0.523-1.104-1.001-1.729-1.411c-0.614-0.408-1.274-0.762-1.968-1.047
			c-0.683-0.284-1.399-0.5-2.128-0.649c-1.468-0.296-2.981-0.296-4.449,0c-0.717,0.149-1.434,0.364-2.128,0.649
			c-0.683,0.284-1.343,0.638-1.957,1.047c-0.626,0.41-1.206,0.887-1.729,1.411s-1.001,1.104-1.422,1.729
			c-0.41,0.614-0.762,1.274-1.047,1.968c-0.273,0.683-0.501,1.398-0.637,2.128c-0.148,0.728-0.228,1.479-0.228,2.219
			c0,0.738,0.08,1.49,0.228,2.23c0.137,0.717,0.364,1.434,0.649,2.128c0.284,0.683,0.626,1.343,1.035,1.957
			c0.421,0.626,0.899,1.206,1.422,1.729s1.104,1.001,1.729,1.422c0.614,0.41,1.274,0.762,1.957,1.047
			c0.694,0.284,1.411,0.501,2.128,0.648c0.74,0.148,1.49,0.216,2.23,0.216s1.49-0.069,2.219-0.216
			c0.728-0.147,1.445-0.364,2.128-0.648c0.694-0.284,1.354-0.637,1.968-1.047c0.626-0.421,1.206-0.899,1.729-1.422
			c0.523-0.523,1.001-1.104,1.411-1.729c0.41-0.614,0.762-1.274,1.047-1.957c0.284-0.694,0.501-1.411,0.648-2.128
			c0.148-0.74,0.228-1.492,0.228-2.23C344.428,325.46,344.348,324.708,344.201,323.981z"/>
	</g>
</g>
<g>
</g>
<g>
</g>
<g>
</g>
<g>
</g>
<g>
</g>
<g>
</g>
<g>
</g>
<g>
</g>
<g>
</g>
<g>
</g>
<g>
</g>
<g>
</g>
<g>
</g>
<g>
</g>
<g>
</g>
</svg>
