<?xml version="1.0" encoding="iso-8859-1"?>
<!-- Generator: Adobe Illustrator 19.0.0, SVG Export Plug-In . SVG Version: 6.00 Build 0)  -->
<svg version="1.1" id="Layer_1" xmlns="http://www.w3.org/2000/svg" xmlns:xlink="http://www.w3.org/1999/xlink" x="0px" y="0px"
	 viewBox="0 0 512 512" style="enable-background:new 0 0 512 512;" xml:space="preserve">
<g>
	<g>
		<path d="M453.263,0H58.737c-6.516,0-11.799,5.282-11.799,11.799v134.671v353.732c0,6.516,5.282,11.799,11.799,11.799h394.526
			c6.516,0,11.799-5.282,11.799-11.799V146.469V11.799C465.062,5.282,459.779,0,453.263,0z M441.464,488.403H70.536V158.268h370.929
			V488.403z M441.464,134.671H70.536V23.597h370.929V134.671z"/>
	</g>
</g>
<g>
	<g>
		<path d="M256.001,174.59c-81.648,0-148.073,66.425-148.073,148.073s66.424,148.073,148.073,148.073
			c81.648,0,148.073-66.425,148.073-148.073S337.648,174.59,256.001,174.59z M256.001,447.138
			c-68.636,0-124.475-55.839-124.475-124.475s55.839-124.475,124.475-124.475c68.636,0,124.475,55.839,124.475,124.475
			S324.637,447.138,256.001,447.138z"/>
	</g>
</g>
<g>
	<g>
		<path d="M300.629,322.663c0-23.152,9.818-45.393,26.935-61.017c2.449-2.236,3.844-5.398,3.844-8.714s-1.396-6.479-3.845-8.714
			c-19.6-17.889-45.015-27.742-71.562-27.742c-58.552,0-106.188,47.636-106.188,106.188S197.449,428.85,256.001,428.85
			c26.547,0,51.962-9.853,71.562-27.742c2.449-2.236,3.845-5.399,3.845-8.714s-1.396-6.479-3.844-8.714
			C310.447,368.055,300.629,345.815,300.629,322.663z M256.001,405.253c-45.54,0-82.59-37.05-82.59-82.59
			c0-45.54,37.049-82.59,82.59-82.59c16.565,0,32.564,4.933,46.114,14.068c-16.071,19.051-25.083,43.367-25.083,68.523
			c0,25.156,9.012,49.472,25.083,68.523C288.565,400.32,272.566,405.253,256.001,405.253z"/>
	</g>
</g>
<g>
	<g>
		<path d="M149.266,40.751H96.673c-6.516,0-11.799,5.282-11.799,11.799v52.701c0,6.516,5.282,11.799,11.799,11.799h52.592
			c6.516,0,11.799-5.282,11.799-11.799V52.55C161.064,46.034,155.782,40.751,149.266,40.751z M137.467,93.451h-28.995V64.349h28.995
			V93.451z"/>
	</g>
</g>
<g>
	<g>
		<path d="M370.158,67.101H252.506V52.55c0-6.516-5.282-11.799-11.799-11.799h-52.592c-6.516,0-11.799,5.282-11.799,11.799v52.701
			c0,6.516,5.282,11.799,11.799,11.799h52.592c6.516,0,11.799-5.282,11.799-11.799V90.698h117.652
			c6.516,0,11.799-5.282,11.799-11.799C381.957,72.383,376.675,67.101,370.158,67.101z M228.91,93.451h-28.995V64.349h28.995V93.451
			z"/>
	</g>
</g>
<g>
	<g>
		<path d="M422.23,76.59c-0.153-0.742-0.378-1.487-0.673-2.206c-0.295-0.708-0.661-1.392-1.086-2.029
			c-0.425-0.649-0.92-1.251-1.463-1.793s-1.144-1.038-1.793-1.475c-0.637-0.425-1.321-0.79-2.041-1.085
			c-0.708-0.295-1.451-0.519-2.206-0.673c-1.522-0.307-3.079-0.307-4.601,0c-0.755,0.153-1.498,0.378-2.218,0.673
			c-0.708,0.295-1.392,0.661-2.029,1.085c-0.649,0.437-1.251,0.932-1.793,1.475s-1.038,1.144-1.475,1.793
			c-0.413,0.637-0.779,1.321-1.074,2.029c-0.295,0.72-0.531,1.463-0.672,2.206c-0.153,0.767-0.236,1.546-0.236,2.313
			s0.083,1.546,0.236,2.301c0.142,0.755,0.378,1.498,0.672,2.206c0.295,0.72,0.661,1.404,1.074,2.041
			c0.437,0.649,0.932,1.251,1.475,1.793s1.144,1.038,1.793,1.463c0.637,0.425,1.321,0.791,2.029,1.086
			c0.72,0.295,1.463,0.519,2.218,0.672s1.534,0.236,2.301,0.236c0.767,0,1.546-0.083,2.301-0.236s1.498-0.378,2.206-0.672
			c0.72-0.295,1.404-0.661,2.041-1.086c0.649-0.425,1.251-0.92,1.793-1.463s1.038-1.144,1.463-1.793
			c0.425-0.637,0.791-1.321,1.085-2.041c0.295-0.708,0.519-1.451,0.673-2.206s0.236-1.534,0.236-2.301S422.384,77.357,422.23,76.59z
			"/>
	</g>
</g>
<g>
</g>
<g>
</g>
<g>
</g>
<g>
</g>
<g>
</g>
<g>
</g>
<g>
</g>
<g>
</g>
<g>
</g>
<g>
</g>
<g>
</g>
<g>
</g>
<g>
</g>
<g>
</g>
<g>
</g>
</svg>
